<?xml version="1.0" encoding="UTF-8"?>
<svg id="Layer_1" xmlns="http://www.w3.org/2000/svg" xmlns:xlink="http://www.w3.org/1999/xlink" version="1.1" viewBox="0 0 155.9 52.5">
  <!-- Generator: Adobe Illustrator 29.6.1, SVG Export Plug-In . SVG Version: 2.1.1 Build 9)  -->
  <defs>
    <style>
      .st0 {
        fill: none;
      }

      .st1 {
        fill: url(#linear-gradient1);
      }

      .st2 {
        fill: url(#linear-gradient);
      }

      .st3 {
        clip-path: url(#clippath-1);
      }

      .st4 {
        fill: #fff;
      }

      .st5 {
        clip-path: url(#clippath);
      }
    </style>
    <clipPath id="clippath">
      <path class="st0" d="M37.6,28.4c-.3.9-.6,2.5-.7,3.5-.2,2.3,0,2.5,0,2.5,0,0,.1,0,.2,0,.3,0,.3-.3.4-.4,1-3.8,2.5-6.4,6.7-7.7.1,0,.3,0,.4-.1.3,0,.5-.1.8-.3.3-.1.5-.4.5-.6,0-.3-.2-.5-.5-.6,0,0-.4-.2-1.2-.2-.1,0-.3,0-.4,0-2.2,0-5.3.4-6.4,3.8"/>
    </clipPath>
    <linearGradient id="linear-gradient" x1="77.7" y1="817.2" x2="78.7" y2="817.2" gradientTransform="translate(-689.7 7663.6) scale(9.3 -9.3)" gradientUnits="userSpaceOnUse">
      <stop offset="0" stop-color="#c7c8ca"/>
      <stop offset="1" stop-color="#58595b"/>
    </linearGradient>
    <clipPath id="clippath-1">
      <path class="st0" d="M37,16.4c0,0-.2.3,0,2.5,0,1,.4,2.6.7,3.5,1.1,3.4,4.2,3.8,6.4,3.8s.3,0,.4,0c.8,0,1.1-.1,1.2-.2.3-.1.5-.4.5-.6,0-.3-.2-.5-.5-.6-.3-.1-.5-.2-.8-.3-.1,0-.3,0-.4-.1-3.1-.9-5.3-2.6-6.7-7.7,0-.1-.1-.4-.4-.4s-.2,0-.2,0"/>
    </clipPath>
    <linearGradient id="linear-gradient1" x1="-67.4" y1="867.8" x2="-66.4" y2="867.8" gradientTransform="translate(-6397.8 520.3) rotate(90) scale(7.4 -7.4)" gradientUnits="userSpaceOnUse">
      <stop offset="0" stop-color="#c7c8ca"/>
      <stop offset=".6" stop-color="#58595b"/>
      <stop offset=".7" stop-color="#58595b"/>
      <stop offset="1" stop-color="#58595b"/>
    </linearGradient>
  </defs>
  <g>
    <path class="st4" d="M74,23.3c0,.2,0,.5-.1.7,0,.2-.2.4-.4.5-.2.1-.4.2-.6.3-.2,0-.5.1-.7.1s-.5,0-.8,0c-.3,0-.5-.1-.7-.3v-.6c.3,0,.5.2.8.2.2,0,.5,0,.7,0,.3,0,.6,0,.8-.2.2-.2.3-.4.3-.7s0-.3,0-.4c0-.1-.1-.2-.2-.3-.1,0-.2-.2-.4-.3-.1,0-.3-.2-.4-.2-.2,0-.3-.2-.5-.3-.2-.1-.3-.2-.4-.3-.1-.1-.2-.3-.3-.4,0-.2-.1-.4-.1-.6s0-.5.1-.7c0-.2.2-.3.3-.5s.3-.2.5-.3c.2,0,.4,0,.7,0s.5,0,.7,0c.2,0,.4.1.6.2v.6c-.3,0-.5-.2-.7-.2-.2,0-.4,0-.6,0-.6,0-.9.3-.9.8s0,.2,0,.3c0,0,0,.2.2.2,0,0,.2.2.3.2.1,0,.3.2.4.2.2,0,.3.2.5.3.2.1.4.2.5.4.2.1.3.3.4.5.1.2.2.4.2.7"/>
    <path class="st4" d="M77.3,22.8c0-.2,0-.4,0-.6,0-.2-.1-.4-.2-.5,0-.1-.2-.3-.3-.3-.1,0-.3-.1-.5-.1s-.4,0-.5.1c-.1,0-.3.2-.3.3,0,.1-.2.3-.2.5,0,.2,0,.4,0,.6s0,.4,0,.6c0,.2.1.4.2.5,0,.1.2.3.3.3.1,0,.3.1.5.1s.4,0,.5-.1c.1,0,.3-.2.3-.3,0-.1.2-.3.2-.5,0-.2,0-.4,0-.6M78,22.8c0,.3,0,.6-.1.8,0,.3-.2.5-.4.7-.2.2-.3.4-.6.5-.2.1-.5.2-.8.2s-.6,0-.8-.2c-.2-.1-.4-.3-.6-.5-.2-.2-.3-.4-.4-.7,0-.3-.1-.5-.1-.8s0-.6.1-.8c0-.3.2-.5.4-.7.2-.2.3-.4.6-.5s.5-.2.8-.2.5,0,.8.2c.2.1.4.3.6.5.2.2.3.4.4.7,0,.3.1.5.1.8"/>
    <path class="st4" d="M79.4,23.8c0,.2,0,.3,0,.4,0,0,.2.1.3.1s.2,0,.4,0v.6c-.1,0-.3,0-.5,0-.3,0-.6-.1-.7-.3-.1-.2-.2-.5-.2-.8v-5h.7v5Z"/>
    <path class="st4" d="M83.8,20.7v4.1h-.7v-.6c-.1.2-.3.4-.5.5-.2.1-.4.2-.7.2s-.4,0-.6-.2c-.2-.1-.3-.3-.4-.4-.1-.2-.2-.4-.2-.7s0-.5,0-.8v-2.2h.7v2.2c0,.2,0,.4,0,.6,0,.2,0,.3.1.5,0,.1.1.2.3.3.1,0,.2.1.4.1s.4,0,.5-.2c.2-.1.3-.2.4-.4v-3h.7Z"/>
    <path class="st4" d="M86.3,20.6c.2,0,.4,0,.6,0,.2,0,.3,0,.5.2v.6c-.2,0-.4-.1-.5-.1-.2,0-.3,0-.5,0-.4,0-.7.1-.9.4-.2.3-.3.7-.3,1.1s0,.8.3,1.1c.2.3.5.4.9.4s.3,0,.5,0c.2,0,.3,0,.4-.1v.6c0,0-.2.1-.4.2-.2,0-.4,0-.6,0-.3,0-.6,0-.8-.2s-.4-.3-.6-.5c-.2-.2-.3-.4-.4-.7,0-.3-.1-.5-.1-.8s0-.6.1-.8c0-.3.2-.5.4-.7.2-.2.4-.4.6-.5.2-.1.5-.2.8-.2"/>
    <path class="st4" d="M88,20.7h.7v4.1h-.7v-4.1ZM88,19.5c0-.1,0-.2.1-.3,0,0,.2-.1.3-.1s.2,0,.3.1c0,0,.1.2.1.3s0,.2-.1.3c0,0-.2.1-.3.1s-.2,0-.3-.1c0,0-.1-.2-.1-.3"/>
    <path class="st4" d="M92.4,22.8c0-.2,0-.4,0-.6,0-.2-.1-.4-.2-.5,0-.1-.2-.3-.3-.3-.1,0-.3-.1-.5-.1s-.4,0-.5.1c-.1,0-.3.2-.3.3,0,.1-.2.3-.2.5,0,.2,0,.4,0,.6s0,.4,0,.6c0,.2.1.4.2.5,0,.1.2.3.3.3.1,0,.3.1.5.1s.4,0,.5-.1c.1,0,.3-.2.3-.3,0-.1.2-.3.2-.5,0-.2,0-.4,0-.6M93.1,22.8c0,.3,0,.6-.1.8,0,.3-.2.5-.4.7-.2.2-.3.4-.6.5-.2.1-.5.2-.8.2s-.6,0-.8-.2c-.2-.1-.4-.3-.6-.5-.2-.2-.3-.4-.4-.7,0-.3-.1-.5-.1-.8s0-.6.1-.8c0-.3.2-.5.4-.7.2-.2.3-.4.6-.5s.5-.2.8-.2.5,0,.8.2c.2.1.4.3.6.5.2.2.3.4.4.7,0,.3.1.5.1.8"/>
    <path class="st4" d="M93.8,24.8v-4.1h.7v.6c.1-.2.3-.4.5-.5s.4-.2.7-.2.4,0,.6.2c.2.1.3.3.4.4.1.2.2.4.2.7,0,.2,0,.5,0,.8v2.2h-.7v-2.2c0-.2,0-.4,0-.6,0-.2,0-.3-.1-.5,0-.1-.2-.2-.3-.3-.1,0-.2-.1-.4-.1s-.4,0-.6.2-.3.2-.4.4v3h-.7Z"/>
    <path class="st4" d="M99.4,21.2c-.2,0-.3,0-.4,0-.1,0-.2.1-.3.3,0,.1-.1.2-.2.4,0,.1,0,.3,0,.5h1.8c0-.2,0-.3,0-.5,0-.1,0-.3-.1-.4,0-.1-.1-.2-.3-.3-.1,0-.2,0-.4,0M99.4,20.6c.2,0,.4,0,.6.1.2,0,.3.2.5.4.1.1.2.3.3.5,0,.2,0,.4,0,.7s0,.5,0,.7h-2.4c0,.2,0,.4,0,.5,0,.2.1.3.2.4,0,.1.2.2.4.3.2,0,.3,0,.6,0s.4,0,.6,0c.2,0,.3-.1.5-.2v.6c0,0-.3.2-.5.2-.2,0-.4,0-.7,0s-.6,0-.8-.2c-.2-.1-.4-.3-.6-.5-.2-.2-.3-.4-.3-.7,0-.3-.1-.5-.1-.8s0-.6.1-.8c0-.3.2-.5.3-.7.1-.2.3-.4.5-.5.2-.1.5-.2.7-.2"/>
    <path class="st4" d="M103.9,23.7c0,.2,0,.4-.1.5,0,.2-.2.3-.3.4-.1.1-.3.2-.5.3-.2,0-.4,0-.6,0s-.2,0-.3,0c-.1,0-.2,0-.3,0-.1,0-.2,0-.3,0,0,0-.2,0-.2,0v-.6c.3,0,.4.1.6.2.2,0,.4,0,.6,0s.4,0,.6-.1c.2,0,.2-.2.2-.4s0-.2,0-.2c0,0,0-.1-.2-.2,0,0-.1-.1-.2-.2,0,0-.2,0-.3-.1-.1,0-.3-.1-.4-.2-.1,0-.3-.2-.4-.3-.1-.1-.2-.2-.3-.3,0-.1-.1-.3-.1-.5s0-.4.1-.5c0-.1.2-.3.3-.4.1,0,.3-.2.4-.2.2,0,.3,0,.5,0s.4,0,.6,0c.2,0,.4.1.5.2v.6c-.3,0-.4-.1-.6-.2-.2,0-.3,0-.5,0s-.3,0-.5.1-.2.2-.2.4,0,.2,0,.2c0,0,.1.1.2.2,0,0,.1,0,.2.1,0,0,.2,0,.2.1,0,0,.2,0,.3.1.1,0,.3.1.4.2.1.1.2.2.3.4,0,.1.1.3.1.5"/>
  </g>
  <rect class="st4" x="106.2" y="19.1" width=".7" height="5.7"/>
  <g>
    <path class="st4" d="M107.9,24.8v-4.1h.7v.6c.1-.2.3-.4.5-.5s.4-.2.7-.2.4,0,.6.2c.2.1.3.3.4.4.1.2.2.4.2.7,0,.2,0,.5,0,.8v2.2h-.7v-2.2c0-.2,0-.4,0-.6,0-.2,0-.3-.1-.5,0-.1-.2-.2-.3-.3-.1,0-.2-.1-.4-.1s-.4,0-.6.2-.3.2-.4.4v3h-.7Z"/>
    <path class="st4" d="M111.6,20.7h.7v-1.1h.7v1.1h1.2v.6h-1.2v2.1c0,.1,0,.2,0,.3,0,.1,0,.2,0,.3,0,0,0,.1.2.2,0,0,.2,0,.3,0,.2,0,.4,0,.6-.1v.6s-.1,0-.3.1c-.2,0-.3,0-.5,0s-.4,0-.5-.1c-.1,0-.3-.2-.3-.3,0-.1-.2-.3-.2-.5,0-.2,0-.4,0-.6v-2.1h-.7v-.6Z"/>
    <path class="st4" d="M116.2,21.2c-.2,0-.3,0-.4,0-.1,0-.2.1-.3.3,0,.1-.1.2-.2.4,0,.1,0,.3,0,.5h1.8c0-.2,0-.3,0-.5,0-.1,0-.3-.1-.4,0-.1-.1-.2-.3-.3-.1,0-.2,0-.4,0M116.3,20.6c.2,0,.4,0,.6.1.2,0,.3.2.5.4.1.1.2.3.3.5,0,.2,0,.4,0,.7s0,.5,0,.7h-2.4c0,.2,0,.4,0,.5,0,.2.1.3.2.4,0,.1.2.2.4.3.2,0,.3,0,.6,0s.4,0,.6,0c.2,0,.3-.1.5-.2v.6c0,0-.3.2-.5.2-.2,0-.4,0-.7,0s-.6,0-.8-.2c-.2-.1-.4-.3-.6-.5-.2-.2-.3-.4-.3-.7,0-.3-.1-.5-.1-.8s0-.6.1-.8c0-.3.2-.5.3-.7.1-.2.3-.4.5-.5.2-.1.5-.2.7-.2"/>
    <path class="st4" d="M119.7,22.9c.2,0,.5,0,.6-.2.2-.2.2-.4.2-.6s0-.5-.2-.6c-.2-.2-.4-.2-.6-.2s-.5,0-.6.2c-.2.1-.2.4-.2.6s0,.5.2.6c.2.1.4.2.6.2M119.5,24.7c0,0-.2,0-.3.1,0,0-.2.1-.3.2,0,0-.1.1-.2.2,0,0,0,.2,0,.3,0,.2,0,.4.3.5.2,0,.4.1.7.1s.3,0,.5,0c.2,0,.3,0,.5-.2.1,0,.2-.2.3-.3,0-.1.1-.2.1-.4s0-.2,0-.2c0,0-.1-.1-.2-.2s-.2,0-.3,0c0,0-.2,0-.3,0h-.8ZM119.7,23.4c-.1,0-.2,0-.3,0,0,.1-.1.2-.1.3s0,.2,0,.2c0,0,.2,0,.3,0h.8c.2,0,.3.1.5.2.2,0,.3.1.4.2.1,0,.2.2.2.3,0,.1,0,.3,0,.5s0,.4-.2.6c-.1.2-.3.3-.5.5-.2.1-.4.2-.7.3-.3,0-.5.1-.8.1s-.4,0-.6,0c-.2,0-.4-.1-.5-.2-.1,0-.3-.2-.4-.3,0-.1-.1-.3-.1-.5s0-.3,0-.4c0-.1.1-.2.2-.3.1,0,.2-.2.3-.2s.2-.1.4-.1c-.1,0-.2-.1-.3-.2,0,0-.1-.2-.1-.4s0-.3.1-.4c0,0,.2-.2.3-.2-.3-.1-.5-.3-.6-.5-.2-.2-.2-.5-.2-.8s0-.4.1-.6c0-.2.2-.3.3-.5.1-.1.3-.2.5-.3.2,0,.4-.1.6-.1s.2,0,.3,0c0,0,.2,0,.3,0h1.4v.6h-.7c0,.1.1.2.2.4,0,.1,0,.3,0,.4,0,.2,0,.4-.1.6,0,.2-.2.3-.3.4-.1.1-.3.2-.5.3-.2,0-.4.1-.6.1"/>
    <path class="st4" d="M124.3,21.3h-.2c-.3,0-.5,0-.7.2-.2.1-.4.3-.5.6v2.8h-.7v-4.1h.7v.8c.1-.3.3-.5.4-.6.2-.1.4-.2.7-.2s.2,0,.3,0v.6Z"/>
    <path class="st4" d="M125.9,24.3c.2,0,.4,0,.6-.2.2-.1.3-.2.5-.4v-.8c-.2,0-.3,0-.4,0-.1,0-.3,0-.4,0-.1,0-.2,0-.3,0,0,0-.2,0-.2.1,0,0-.1.1-.2.2,0,0,0,.2,0,.3,0,.2,0,.3.2.4s.2.1.4.1M126.9,24.3c0,0-.1.1-.2.2,0,0-.2.1-.3.2-.1,0-.2.1-.4.1-.1,0-.3,0-.4,0s-.3,0-.4,0c-.1,0-.2-.1-.3-.2,0,0-.2-.2-.2-.4,0-.1,0-.3,0-.5,0-.4.1-.7.4-.9.2-.2.6-.3,1-.3.2,0,.3,0,.5,0,.2,0,.3,0,.5,0v-.2c0-.4,0-.6-.2-.8s-.4-.3-.7-.3-.4,0-.5,0c-.2,0-.3.1-.5.2l-.2-.6c.2-.1.4-.2.6-.3.2,0,.4,0,.7,0,.4,0,.8.1,1.1.4.3.3.4.7.4,1.3v2.5h-.7v-.5Z"/>
    <path class="st4" d="M129.2,23.8c0,.2,0,.3,0,.4,0,0,.2.1.3.1s.2,0,.4,0v.6c-.1,0-.3,0-.5,0-.3,0-.6-.1-.7-.3-.1-.2-.2-.5-.2-.8v-5h.7v5Z"/>
    <path class="st4" d="M131.9,21.2c-.2,0-.3,0-.4,0-.1,0-.2.1-.3.3,0,.1-.1.2-.2.4,0,.1,0,.3,0,.5h1.8c0-.2,0-.3,0-.5,0-.1,0-.3-.1-.4,0-.1-.1-.2-.3-.3-.1,0-.2,0-.4,0M131.9,20.6c.2,0,.4,0,.6.1.2,0,.3.2.5.4.1.1.2.3.3.5,0,.2,0,.4,0,.7s0,.5,0,.7h-2.4c0,.2,0,.4,0,.5,0,.2.1.3.2.4,0,.1.2.2.4.3.2,0,.3,0,.6,0s.4,0,.6,0c.2,0,.3-.1.5-.2v.6c0,0-.3.2-.5.2-.2,0-.4,0-.7,0s-.6,0-.8-.2c-.2-.1-.4-.3-.6-.5-.2-.2-.3-.4-.3-.7,0-.3-.1-.5-.1-.8s0-.6.1-.8c0-.3.2-.5.3-.7.1-.2.3-.4.5-.5.2-.1.5-.2.7-.2"/>
    <path class="st4" d="M136.5,23.7c0,.2,0,.4-.1.5,0,.2-.2.3-.3.4-.1.1-.3.2-.5.3-.2,0-.4,0-.6,0s-.2,0-.3,0c-.1,0-.2,0-.3,0-.1,0-.2,0-.3,0,0,0-.2,0-.2,0v-.6c.3,0,.4.1.6.2.2,0,.4,0,.6,0s.4,0,.6-.1c.2,0,.2-.2.2-.4s0-.2,0-.2c0,0,0-.1-.2-.2,0,0-.1-.1-.2-.2,0,0-.2,0-.3-.1-.1,0-.3-.1-.4-.2-.1,0-.3-.2-.4-.3-.1-.1-.2-.2-.3-.3,0-.1-.1-.3-.1-.5s0-.4.1-.5c0-.1.2-.3.3-.4.1,0,.3-.2.4-.2.2,0,.3,0,.5,0s.4,0,.6,0c.2,0,.4.1.5.2v.6c-.3,0-.4-.1-.6-.2-.2,0-.3,0-.5,0s-.3,0-.5.1c-.1,0-.2.2-.2.4s0,.2,0,.2c0,0,.1.1.2.2,0,0,.1,0,.2.1,0,0,.2,0,.2.1,0,0,.2,0,.3.1.1,0,.3.1.4.2.1.1.2.2.3.4,0,.1.1.3.1.5"/>
    <path class="st4" d="M72.4,28.4c-.2,0-.3,0-.4,0-.1,0-.2.2-.3.3,0,.1-.1.2-.2.4s0,.3,0,.5h1.8c0-.2,0-.3,0-.5,0-.1,0-.3-.1-.4,0-.1-.1-.2-.3-.3-.1,0-.2,0-.4,0M72.4,27.8c.2,0,.5,0,.6.1.2,0,.3.2.5.4.1.1.2.3.3.5,0,.2,0,.4,0,.7s0,.5,0,.7h-2.4c0,.2,0,.4,0,.5,0,.2.1.3.2.4,0,.1.2.2.4.3.2,0,.3,0,.6,0s.4,0,.6,0c.2,0,.3-.1.5-.2v.6c0,0-.3.2-.5.2-.2,0-.4,0-.7,0s-.6,0-.8-.2c-.2-.1-.4-.3-.6-.5-.2-.2-.3-.4-.3-.7,0-.3-.1-.5-.1-.8s0-.6.1-.8.2-.5.3-.7c.1-.2.3-.4.5-.5.2-.1.5-.2.7-.2"/>
    <path class="st4" d="M74.5,32v-4.1h.7v.6c.1-.2.3-.4.5-.5.2-.1.4-.2.7-.2s.4,0,.6.2c.2.1.3.3.4.4.1.2.2.4.2.7,0,.2,0,.5,0,.8v2.2h-.7v-2.2c0-.2,0-.4,0-.6,0-.2,0-.3-.1-.5,0-.1-.2-.2-.3-.3-.1,0-.2-.1-.4-.1s-.4,0-.6.2-.3.2-.4.4v3h-.7Z"/>
  </g>
  <polygon class="st4" points="83.8 32 80.9 27.5 80.9 32 80.2 32 80.2 26.3 80.9 26.3 83.8 30.8 83.8 26.3 84.5 26.3 84.5 32 83.8 32"/>
  <g>
    <path class="st4" d="M86.9,28.4c-.2,0-.3,0-.4,0-.1,0-.2.2-.3.3,0,.1-.1.2-.2.4,0,.1,0,.3,0,.5h1.8c0-.2,0-.3,0-.5,0-.1,0-.3-.1-.4,0-.1-.1-.2-.3-.3-.1,0-.2,0-.4,0M87,27.8c.2,0,.4,0,.6.1.2,0,.3.2.5.4.1.1.2.3.3.5,0,.2,0,.4,0,.7s0,.5,0,.7h-2.4c0,.2,0,.4,0,.5,0,.2.1.3.2.4,0,.1.2.2.4.3.2,0,.3,0,.6,0s.4,0,.6,0c.2,0,.3-.1.5-.2v.6c0,0-.3.2-.5.2-.2,0-.4,0-.7,0s-.6,0-.8-.2c-.2-.1-.4-.3-.6-.5-.2-.2-.3-.4-.3-.7,0-.3-.1-.5-.1-.8s0-.6.1-.8c0-.3.2-.5.3-.7s.3-.4.5-.5c.2-.1.5-.2.7-.2"/>
    <path class="st4" d="M90.4,30.1c.2,0,.5,0,.6-.2.2-.2.2-.4.2-.6s0-.5-.2-.6c-.2-.2-.4-.2-.6-.2s-.5,0-.6.2c-.2.1-.2.4-.2.6s0,.5.2.6c.2.1.4.2.6.2M90.1,31.9c0,0-.2,0-.3.1,0,0-.2.1-.3.2,0,0-.1.1-.2.2,0,0,0,.2,0,.3,0,.2,0,.4.3.5.2,0,.4.1.7.1s.3,0,.5,0c.2,0,.3,0,.5-.2.1,0,.2-.2.3-.3,0-.1.1-.2.1-.4s0-.2,0-.2c0,0-.1-.1-.2-.2s-.2,0-.3,0-.2,0-.3,0h-.8ZM90.4,30.6c-.1,0-.2,0-.3,0,0,.1-.1.2-.1.3s0,.2,0,.2.2,0,.3,0h.8c.2,0,.3.1.5.2.2,0,.3.1.4.2.1,0,.2.2.2.3,0,.1,0,.3,0,.5s0,.4-.2.6c-.1.2-.3.3-.5.5-.2.1-.4.2-.7.3-.3,0-.5.1-.8.1s-.4,0-.6,0c-.2,0-.4-.1-.5-.2s-.3-.2-.4-.3-.1-.3-.1-.5,0-.3,0-.4c0-.1.1-.2.2-.3.1,0,.2-.2.3-.2.1,0,.2-.1.4-.1-.1,0-.2-.1-.3-.2,0,0-.1-.2-.1-.4s0-.3.1-.4c0,0,.2-.2.3-.2-.3-.1-.5-.3-.6-.5-.2-.2-.2-.5-.2-.8s0-.4.1-.6c0-.2.2-.3.3-.5.1-.1.3-.2.5-.3.2,0,.4-.1.6-.1s.2,0,.3,0c0,0,.2,0,.3,0h1.4v.6h-.7c0,.1.1.2.2.4,0,.1,0,.3,0,.4,0,.2,0,.4-.1.6,0,.2-.2.3-.3.4-.1.1-.3.2-.5.3-.2,0-.4.1-.6.1"/>
    <path class="st4" d="M95.5,30c0-.2,0-.4,0-.6,0-.2-.1-.4-.2-.5,0-.1-.2-.3-.3-.3-.1,0-.3-.1-.5-.1s-.4,0-.5.1c-.1,0-.3.2-.3.3,0,.1-.2.3-.2.5,0,.2,0,.4,0,.6s0,.4,0,.6c0,.2.1.4.2.5,0,.1.2.3.3.3.1,0,.3.1.5.1s.4,0,.5-.1c.1,0,.3-.2.3-.3,0-.1.2-.3.2-.5,0-.2,0-.4,0-.6M96.2,30c0,.3,0,.6-.1.8,0,.3-.2.5-.4.7-.2.2-.3.4-.6.5-.2.1-.5.2-.8.2s-.6,0-.8-.2c-.2-.1-.4-.3-.6-.5-.2-.2-.3-.4-.4-.7,0-.3-.1-.5-.1-.8s0-.6.1-.8c0-.3.2-.5.4-.7s.3-.4.6-.5c.2-.1.5-.2.8-.2s.5,0,.8.2c.2.1.4.3.6.5.2.2.3.4.4.7,0,.3.1.5.1.8"/>
    <path class="st4" d="M98.5,27.8c.2,0,.4,0,.6,0,.2,0,.3,0,.5.2v.6c-.2,0-.4-.1-.5-.1-.2,0-.3,0-.5,0-.4,0-.7.1-.9.4-.2.3-.3.7-.3,1.1s0,.8.3,1.1c.2.3.5.4.9.4s.3,0,.5,0c.2,0,.3,0,.4-.1v.6c0,0-.2.1-.4.2-.2,0-.4,0-.6,0-.3,0-.6,0-.8-.2s-.4-.3-.6-.5c-.2-.2-.3-.4-.4-.7,0-.3-.1-.5-.1-.8s0-.6.1-.8c0-.3.2-.5.4-.7.2-.2.4-.4.6-.5s.5-.2.8-.2"/>
    <path class="st4" d="M100.2,27.9h.7v4.1h-.7v-4.1ZM100.1,26.7c0-.1,0-.2.1-.3,0,0,.2-.1.3-.1s.2,0,.3.1c0,0,.1.2.1.3s0,.2-.1.3c0,0-.2.1-.3.1s-.2,0-.3-.1c0,0-.1-.2-.1-.3"/>
    <path class="st4" d="M104.6,30c0-.2,0-.4,0-.6,0-.2-.1-.4-.2-.5,0-.1-.2-.3-.3-.3-.1,0-.3-.1-.5-.1s-.4,0-.5.1c-.1,0-.3.2-.3.3,0,.1-.2.3-.2.5,0,.2,0,.4,0,.6s0,.4,0,.6c0,.2.1.4.2.5,0,.1.2.3.3.3.1,0,.3.1.5.1s.4,0,.5-.1c.1,0,.3-.2.3-.3,0-.1.2-.3.2-.5,0-.2,0-.4,0-.6M105.3,30c0,.3,0,.6-.1.8,0,.3-.2.5-.4.7-.2.2-.3.4-.6.5-.2.1-.5.2-.8.2s-.6,0-.8-.2c-.2-.1-.4-.3-.6-.5-.2-.2-.3-.4-.4-.7,0-.3-.1-.5-.1-.8s0-.6.1-.8c0-.3.2-.5.4-.7s.3-.4.6-.5c.2-.1.5-.2.8-.2s.5,0,.8.2c.2.1.4.3.6.5.2.2.3.4.4.7,0,.3.1.5.1.8"/>
    <path class="st4" d="M108.4,30.8c0,.2,0,.4-.1.5,0,.2-.2.3-.3.4-.1.1-.3.2-.5.3-.2,0-.4,0-.6,0s-.2,0-.3,0c-.1,0-.2,0-.3,0-.1,0-.2,0-.3,0,0,0-.2,0-.2,0v-.6c.3,0,.4.1.6.2.2,0,.4,0,.6,0s.4,0,.6-.1.2-.2.2-.4,0-.2,0-.2c0,0,0-.1-.2-.2,0,0-.1-.1-.2-.2,0,0-.2,0-.3-.1-.1,0-.3-.1-.4-.2-.1,0-.3-.2-.4-.3-.1-.1-.2-.2-.3-.3,0-.1-.1-.3-.1-.5s0-.4.1-.5c0-.1.2-.3.3-.4.1,0,.3-.2.4-.2.2,0,.3,0,.5,0s.4,0,.6,0c.2,0,.4.1.5.2v.6c-.3,0-.4-.1-.6-.2-.2,0-.3,0-.5,0s-.3,0-.5.1c-.1,0-.2.2-.2.4s0,.2,0,.2c0,0,.1.1.2.2,0,0,.1,0,.2.1,0,0,.2,0,.2.1,0,0,.2,0,.3.1.1,0,.3.1.4.2.1.1.2.2.3.4,0,.1.1.3.1.5"/>
  </g>
  <g class="st5">
    <rect class="st2" x="35.2" y="23.5" width="12.4" height="12" transform="translate(0 59.2) rotate(-71.1)"/>
  </g>
  <g>
    <path class="st4" d="M23.4,29.5c0-.5-.2-1-.6-1.3-.4-.3-.9-.6-1.5-.9s-1.3-.6-2-.9c-.7-.3-1.4-.7-2-1.1-.6-.4-1.1-1-1.5-1.6-.4-.6-.6-1.4-.6-2.4s.1-1.6.4-2.2c.3-.6.7-1.1,1.3-1.6.5-.4,1.2-.7,1.9-.9.7-.2,1.6-.3,2.5-.3s2,0,3,.3c.9.2,1.2,3.7,1.2,3.7-.4-.2-1-.4-1.7-.6-.8-.2-1.6-.3-2.5-.3s-1.5.2-1.9.5-.7.7-.7,1.3.2.9.6,1.3c.4.3.9.6,1.5.9.6.3,1.3.6,2,.9.7.3,1.4.7,2,1.1.6.4,1.1,1,1.5,1.6.4.6.6,1.4.6,2.3s-.2,1.7-.5,2.4c-.3.7-.8,1.2-1.3,1.7-.6.5-1.3.8-2.1,1-.8.2-1.7.3-2.7.3s-2.4-.1-3.4-.4c-1-.2-1.7-.5-2.2-.7,0,0,2.5-2.4,2.9-2.3.4.1.8.2,1.2.2.4,0,.9.1,1.3.1,1.1,0,1.9-.2,2.4-.5.6-.3.8-.9.8-1.6"/>
    <path class="st4" d="M32,16.3v18.2h-3.5v-17.2c0-1.2,3.5-1.1,3.5-1.1"/>
    <path class="st4" d="M59.1,17.3v10.8l-3.6-5.5-4.3-6.4s-2.6-.3-2.6.9v17.3h3.4v-12l8,12h2.6v-18.3s-3.4-.1-3.4,1.1"/>
    <path class="st4" d="M44,16.3c-.4,0-.8,0-1.1,0-.7,0-1.3.2-1.9.4-.2,0-.4.1-.5.2-.1,0-.3.1-.5.2-.1,0-.2,0-.3.1h-.3c-.2.2-.4.3-.6.5-.8.5-1.5,1.2-2.1,1.9l-.3.4c0,0-.1.2-.2.3l-.2.3c0,.1-.1.2-.2.4l-.2.5-.3.7v.2c-.4.9-.5,1.9-.5,3h0c0,0,0,.9,0,.9,0,0,0,.1,0,.2v.4c0,0,0,0,0,.1,0,0,0,.2,0,.3v.5c.1,0,.1.2.2.3v.5c.2,0,.2.2.2.3h0c0,.2,0,.3,0,.4h0c0,.2,0,.3.1.4l.2.3s0,0,0,.1c0,0,0,.2.1.3l.2.3c0,.2.2.3.3.5,0,0,0,0,.1.1.6.8,1.3,1.4,2.1,2,.7.4,1.4.8,2.2,1,.6.2,1.3.3,2,.4.3,0,.7,0,1,0s.3,0,.5,0c.8,0,1.8,0,1.8-.7,0-.2-.3-.5-.8-.6-.1,0-.3,0-.5,0-.1,0-.7-.1-.9-.2-.7-.2-1.2-.4-2-.8-.6-.3-1.1-.6-1.6-1-.5-.4-1-.9-1.4-1.5-.4-.6-.7-1.3-.9-2-.2-.7-.3-1.4-.2-2.3,0-.8.1-1.5.3-2.3.2-.7.5-1.4.9-2,.4-.5.8-1,1.4-1.5.5-.4,1-.7,1.6-1,.8-.4,1.6-.7,2.5-.9.3,0,.5-.1.8-.1,0,0,0,0,0,0,.6,0,.6-.4.6-.6s0-.6-.8-.6h0c-.2,0-.5,0-.9,0-.1,0-.2,0-.4,0"/>
  </g>
  <g class="st3">
    <rect class="st1" x="34.6" y="14.4" width="13.6" height="13.6" transform="translate(-2.5 36.7) rotate(-46.6)"/>
  </g>
  <path class="st4" d="M66.7,40.1h0c-.4,0-.7-.3-.7-.7V11.3c0-.4.3-.7.7-.7s.7.3.7.7v28.1c0,.4-.3.7-.7.7"/>
</svg>